<svg height="512pt" viewBox="0 -25 512 512" width="512pt" xmlns="http://www.w3.org/2000/svg"><path d="m368.46875 190.667969s-224.929688 0-224.933594 0c-70.398437 0-127.46875 57.066406-127.46875 127.464843v128.535157c0 8.285156 6.714844 15 15 15h322.402344c8.28125 0 15-6.714844 15-15zm0 0" fill="#00eccf"/><path d="m368.46875 190.667969s-159.769531 0-208.867188 0v271h193.867188c8.28125 0 15-6.71875 15-15zm0 0" fill="#00cab1"/><path d="m368.46875 190.667969c-70.398438 0-127.46875 57.066406-127.46875 127.464843v128.535157c0 8.285156 6.714844 15 15 15h224.933594c8.285156 0 15-6.714844 15-15v-128.535157c0-70.398437-57.070313-127.464843-127.464844-127.464843zm0 0" fill="#0051bd"/><path d="m368.46875 190.667969v271h112.464844c8.285156 0 15-6.71875 15-15v-128.535157c0-70.398437-57.070313-127.464843-127.464844-127.464843zm0 0" fill="#00347b"/><path d="m55.167969 333.132812h-40.167969c-8.285156 0-15-6.714843-15-15v-80.332031c0-8.285156 6.714844-15 15-15h40.167969c30.417969 0 55.167969 24.75 55.167969 55.167969s-24.75 55.164062-55.167969 55.164062zm0 0" fill="#e8afa3"/><path d="m497 333.132812h-40.167969c-30.417969 0-55.167969-24.746093-55.167969-55.164062 0-30.421875 24.75-55.167969 55.167969-55.167969h40.167969c8.285156 0 15 6.714844 15 15v80.332031c0 8.285157-6.714844 15-15 15zm0 0" fill="#ffdccd"/><path d="m159.601562 190.667969c-52.570312 0-95.335937-42.769531-95.335937-95.332031 0-52.566407 42.769531-95.335938 95.335937-95.335938 52.5625 0 95.332032 42.769531 95.332032 95.335938 0 52.5625-42.765625 95.332031-95.332032 95.332031zm0 0" fill="#ffece3"/><path d="m368.46875 190.667969c-52.570312 0-95.335938-42.769531-95.335938-95.332031 0-52.566407 42.769532-95.335938 95.335938-95.335938 52.5625 0 95.332031 42.765625 95.332031 95.335938 0 52.566406-42.765625 95.332031-95.332031 95.332031zm0 0" fill="#e8afa3"/><path d="m159.601562 0v190.667969c52.566407 0 95.332032-42.769531 95.332032-95.332031 0-52.566407-42.765625-95.335938-95.332032-95.335938zm0 0" fill="#ffdccd"/><path d="m463.800781 95.335938c0-52.570313-42.765625-95.335938-95.332031-95.335938v190.667969c52.566406 0 95.332031-42.765625 95.332031-95.332031zm0 0" fill="#d19188"/><path d="m95.332031 366.335938h-79.265625v80.332031c0 8.28125 6.714844 15 15 15h64.269532v-95.332031zm0 0" fill="#ffece3"/><path d="m416.667969 366.335938h79.265625v80.332031c0 8.28125-6.714844 15-15 15h-64.265625zm0 0" fill="#d19188"/></svg>