<?xml version="1.0" encoding="iso-8859-1"?>
<!-- Generator: Adobe Illustrator 19.0.0, SVG Export Plug-In . SVG Version: 6.00 Build 0)  -->
<svg version="1.1" id="Capa_1" xmlns="http://www.w3.org/2000/svg" xmlns:xlink="http://www.w3.org/1999/xlink" x="0px" y="0px"
	 viewBox="0 0 512.001 512.001" style="enable-background:new 0 0 512.001 512.001;" xml:space="preserve">
<g>
	<g>
		<path d="M501.622,211.722l-26.901-8.713c-3.659-15.095-8.928-29.809-15.727-43.94l31.041-31.041
			c29.241-29.241,29.241-76.82,0-106.061c-29.241-29.242-76.821-29.242-106.061,0l-31.108,31.107
			c-12.337-5.869-25.244-10.637-38.567-14.204L299.498,8.44c-2.511-5.162-7.748-8.439-13.488-8.439h-59.997
			c-5.741,0-10.979,3.277-13.488,8.439l-14.798,30.428c-20.894,5.589-40.613,14.017-58.813,25.136l-24.681-12.34
			c-5.773-2.887-12.748-1.756-17.313,2.81L54.495,96.897c-4.565,4.565-5.697,11.54-2.81,17.314l12.341,24.68
			c-11.119,18.199-19.547,37.919-25.136,58.813L8.461,212.503c-5.163,2.511-8.439,7.748-8.439,13.488v59.997
			c0,5.741,3.277,10.978,8.439,13.488l30.434,14.801c4.665,17.35,11.419,34.073,20.14,49.883L1.35,490.783
			c-2.594,5.694-1.381,12.399,3.044,16.824c4.425,4.425,11.131,5.637,16.824,3.043l126.611-57.681
			c17.578,9.736,36.074,16.996,55.176,21.651l8.738,26.979c2.004,6.187,7.767,10.378,14.27,10.378h59.997
			c6.504,0,12.266-4.191,14.27-10.378l8.737-26.979c20.61-5.022,40.49-13.06,59.284-23.977l31.454,10.485
			c5.387,1.796,11.331,0.394,15.349-3.624l42.424-42.424c4.018-4.018,5.421-9.96,3.624-15.349l-10.484-31.453
			c10.915-18.795,18.955-38.674,23.977-59.284l26.979-8.738c6.187-2.004,10.378-7.767,10.378-14.269v-59.997
			C512,219.487,507.809,213.725,501.622,211.722z M405.185,43.179c17.545-17.545,46.091-17.545,63.638,0
			c17.544,17.545,17.544,46.092,0,63.637l-35.393,35.391l-63.637-63.637L405.185,43.179z M412.216,163.42l-26.997,26.998
			c-0.027,0.026-0.053,0.053-0.08,0.08l-0.325,0.325l-63.637-63.637l0.318-0.318c0.03-0.03,0.06-0.059,0.09-0.09l26.994-26.995
			L412.216,163.42z M391.005,255.99c0,74.436-60.558,134.994-134.994,134.994c-8.93,0-17.736-0.868-26.36-2.574l158.78-158.779
			C390.137,238.254,391.005,247.06,391.005,255.99z M58.295,290.355l-28.274-13.751v-41.228l28.274-13.751
			c4.06-1.974,7.014-5.672,8.044-10.067c5.366-22.901,14.579-44.247,27.384-63.443c2.988-4.479,3.346-10.216,0.938-15.031
			l-11.31-22.618l27.135-27.135l22.618,11.309c4.815,2.408,10.553,2.05,15.031-0.938c19.196-12.804,40.541-22.018,63.443-27.384
			c4.396-1.03,8.093-3.984,10.067-8.044L235.397,30h41.228l13.751,28.274c1.975,4.06,5.672,7.014,10.067,8.044
			c10.186,2.387,20.109,5.573,29.687,9.492l-23.207,23.207c-16.386-5.318-33.467-8.019-50.912-8.019
			c-90.977,0-164.993,74.016-164.993,164.993c0,17.446,2.701,34.527,8.019,50.913l-23.158,23.158
			c-3.972-9.606-7.167-19.507-9.541-29.638C65.308,296.028,62.354,292.33,58.295,290.355z M282.37,123.57L123.59,282.35
			c-1.706-8.623-2.573-17.43-2.573-26.36c0-74.436,60.558-134.994,134.994-134.994C264.94,120.996,273.747,121.864,282.37,123.57z
			 M45.275,466.726l17.716-38.887c4.567,2.187,8.766,5.13,12.404,8.769c3.638,3.638,6.582,7.837,8.769,12.403L45.275,466.726z
			 M162.163,413.474c-11.527,5.252-41.294,18.812-50.686,23.091c-3.669-7.814-8.678-14.978-14.87-21.171
			c-6.193-6.193-13.357-11.203-21.172-14.87c0.73-1.603,22.361-49.084,23.091-50.686c8.495-8.495,196.251-196.251,201.44-201.441
			l63.637,63.637C358.196,217.442,170.325,405.313,162.163,413.474z M457.242,283.099c-5.161,1.672-9.018,6-10.085,11.319
			c-4.505,22.448-13.131,44.025-25.64,64.133c-2.357,3.79-2.905,8.432-1.494,12.666l9.737,29.209l-29.313,29.314l-29.211-9.738
			c-4.234-1.412-8.877-0.864-12.666,1.494c-20.106,12.508-41.684,21.135-64.132,25.641c-5.319,1.068-9.647,4.924-11.318,10.085
			l-8.018,24.759h-38.18l-8.019-24.759c-1.672-5.161-6-9.018-11.318-10.085c-12.182-2.445-24.118-6.113-35.704-10.955l23.218-23.218
			c16.387,5.318,33.468,8.019,50.913,8.019c90.977,0,164.993-74.016,164.993-164.993c0-17.446-2.701-34.526-8.019-50.914
			l23.287-23.287c4.773,11.542,8.423,23.51,10.885,35.774c1.033,5.148,4.679,9.368,9.592,11.149
			c0.286,0.106,0.575,0.203,0.868,0.291L482,236.9v38.18h0.001L457.242,283.099z"/>
	</g>
</g>
<g>
</g>
<g>
</g>
<g>
</g>
<g>
</g>
<g>
</g>
<g>
</g>
<g>
</g>
<g>
</g>
<g>
</g>
<g>
</g>
<g>
</g>
<g>
</g>
<g>
</g>
<g>
</g>
<g>
</g>
</svg>
